<?xml version="1.0" standalone="no"?><!DOCTYPE svg PUBLIC "-//W3C//DTD SVG 1.1//EN" "http://www.w3.org/Graphics/SVG/1.1/DTD/svg11.dtd"><svg t="1633760848303" class="icon" viewBox="0 0 1024 1024" version="1.1" xmlns="http://www.w3.org/2000/svg" p-id="3752" xmlns:xlink="http://www.w3.org/1999/xlink" width="200" height="200"><defs><style type="text/css"></style></defs><path d="M127 232.2c38.8 0 82.1 77.3 82.1 180.7 0 103.4-43.4 180.7-82.1 180.7-38.8 0-82.1-77.3-82.1-180.7-0.1-103.4 43.3-180.7 82.1-180.7m0-32.9c-63.5 0-115 95.6-115 213.5s51.5 213.5 115 213.5 115-95.6 115-213.5-51.5-213.5-115-213.5z" fill="#2c2c2c" p-id="3753"></path><path d="M110.6 593.6h32.8v197.1h-32.8zM356.9 133.6c14.3 0 49.3 51.8 49.3 147.9 0 96-35 147.8-49.3 147.8-13.8 0-46.1-50.3-46.1-147.8 0.1-97.6 32.4-147.9 46.1-147.9m0-32.9c-45.4 0-78.9 80.9-78.9 180.7 0 99.8 33.6 180.7 78.9 180.7 45.4 0 82.1-80.9 82.1-180.7 0.1-99.8-36.7-180.7-82.1-180.7zM586.9 67.9c19.6 0 49.3 45.8 49.3 115 0 69.1-29.7 115-49.3 115-19.1 0-48-45.8-48-115 0.1-69.2 28.9-115 48-115m0-32.9c-45.4 0-80.8 66.2-80.8 147.9 0 81.6 35.5 147.8 80.8 147.8 45.4 0 82.1-66.2 82.1-147.8 0.1-81.7-36.7-147.9-82.1-147.9zM915.5 199.3c19.6 0 49.3 45.8 49.3 115 0 69.1-29.7 115-49.3 115-19.1 0-48-45.9-48-115s28.9-115 48-115m0-32.9c-45.4 0-80.8 66.2-80.8 147.9 0 81.6 35.5 147.8 80.8 147.8 45.4 0 82.1-66.2 82.1-147.8 0-81.7-36.7-147.9-82.1-147.9z" fill="#2c2c2c" p-id="3754"></path><path d="M340.5 429.3h32.9v197.1h-32.9zM570.5 297.9h32.9v131.4h-32.9zM899 429.3h32.9v164.3H899z" fill="#2c2c2c" p-id="3755"></path><path d="M586 500.5C452.6 664 374.4 856.8 350.2 922.1H207.5c154-229 287.7-354.5 378.5-421.6m148.8-104.1H702S461.5 464.8 146.7 955h226.8c-0.1 0 121.7-364.1 361.3-558.6z" fill="#2c2c2c" p-id="3756"></path><path d="M766.8 440.7c-48.7 138 19.6 378.8 53.3 481.4H514c50.9-271.9 198.1-430.6 252.8-481.4m66.5-44.3h-65.7S531.2 575.7 475.1 955h391c0.1 0-164.2-447.7-32.8-558.6z" fill="#2c2c2c" p-id="3757"></path></svg>